<svg width="215" height="38" viewBox="0 0 215 38" fill="none" xmlns="http://www.w3.org/2000/svg">
<circle cx="16.709" cy="16.9336" r="16.709" fill="white"/>
<g clip-path="url(#clip0_1_1698)">
<path d="M15.235 29.5512V19.334H12.4557V15.6554H15.235V12.5133C15.235 10.0443 16.8767 7.77686 20.6595 7.77686C22.1911 7.77686 23.3237 7.91959 23.3237 7.91959L23.2344 11.3548C23.2344 11.3548 22.0794 11.3439 20.819 11.3439C19.4548 11.3439 19.2363 11.955 19.2363 12.9693V15.6554H23.3429L23.1642 19.334H19.2363V29.5512H15.235Z" fill="black"/>
</g>
<circle cx="73.0363" cy="16.709" r="16.709" fill="white"/>
<g clip-path="url(#clip1_1_1698)">
<path d="M83.1683 10.6486C82.4094 10.9689 81.6045 11.1792 80.7802 11.2723C81.6388 10.7821 82.298 10.0059 82.6084 9.08094C81.7922 9.54233 80.8993 9.86741 79.9682 10.0421C79.2097 9.27235 78.1292 8.79126 76.9333 8.79126C74.6371 8.79126 72.7754 10.5648 72.7754 12.7522C72.7754 13.0627 72.8122 13.365 72.8831 13.6549C69.4276 13.4897 66.364 11.9128 64.3132 9.51632C63.9554 10.1013 63.7504 10.7818 63.7504 11.5077C63.7504 12.8819 64.4845 14.0943 65.6 14.8046C64.9398 14.7849 64.294 14.615 63.7167 14.3091C63.7165 14.3257 63.7165 14.3423 63.7165 14.359C63.7165 16.2781 65.1497 17.8791 67.0517 18.243C66.4394 18.4016 65.7972 18.4248 65.1741 18.3108C65.7031 19.8845 67.2386 21.0297 69.058 21.0617C67.635 22.124 65.8422 22.7573 63.8943 22.7573C63.5587 22.7573 63.2277 22.7385 62.9025 22.702C64.7425 23.8258 66.9279 24.4816 69.2759 24.4816C76.9236 24.4816 81.1056 18.4458 81.1056 13.2116C81.1056 13.0398 81.1016 12.8689 81.0936 12.6991C81.9075 12.1385 82.6101 11.4442 83.1683 10.6486Z" fill="black"/>
</g>
<circle cx="125.454" cy="16.709" r="16.709" fill="white"/>
<g clip-path="url(#clip2_1_1698)">
<path d="M120.534 22.9696V11.5752H116.672V22.9696H120.534ZM118.603 10.0185C119.95 10.0185 120.789 9.14357 120.789 8.05016C120.763 6.93209 119.95 6.08142 118.629 6.08142C117.308 6.08142 116.444 6.93211 116.444 8.05016C116.444 9.14362 117.282 10.0185 118.578 10.0185H118.603H118.603ZM122.672 22.9696H126.534V16.6064C126.534 16.2659 126.559 15.9257 126.661 15.6822C126.94 15.0018 127.576 14.2971 128.642 14.2971C130.04 14.2971 130.599 15.342 130.599 16.8738V22.9695H134.461V16.4361C134.461 12.9361 132.556 11.3077 130.014 11.3077C127.931 11.3077 127.016 12.4497 126.508 13.2275H126.534V11.5749H122.672C122.722 12.6441 122.672 22.9694 122.672 22.9694L122.672 22.9696Z" fill="black"/>
</g>
<circle cx="177.872" cy="16.709" r="16.709" fill="white"/>
<g clip-path="url(#clip3_1_1698)">
<path d="M177.894 12.0552C175.337 12.0552 173.274 14.0857 173.274 16.6031C173.274 19.1205 175.337 21.1511 177.894 21.1511C180.451 21.1511 182.514 19.1205 182.514 16.6031C182.514 14.0857 180.451 12.0552 177.894 12.0552ZM177.894 19.5599C176.241 19.5599 174.89 18.2339 174.89 16.6031C174.89 14.9724 176.237 13.6464 177.894 13.6464C179.551 13.6464 180.898 14.9724 180.898 16.6031C180.898 18.2339 179.547 19.5599 177.894 19.5599ZM183.781 11.8692C183.781 12.4589 183.298 12.93 182.703 12.93C182.104 12.93 181.626 12.455 181.626 11.8692C181.626 11.2834 182.108 10.8084 182.703 10.8084C183.298 10.8084 183.781 11.2834 183.781 11.8692ZM186.841 12.9458C186.772 11.5248 186.443 10.2661 185.385 9.22908C184.332 8.19204 183.053 7.86747 181.609 7.79623C180.122 7.71311 175.662 7.71311 174.175 7.79623C172.735 7.86352 171.456 8.18809 170.399 9.22512C169.341 10.2622 169.016 11.5209 168.943 12.9418C168.859 14.4064 168.859 18.796 168.943 20.2605C169.012 21.6815 169.341 22.9402 170.399 23.9772C171.456 25.0142 172.731 25.3388 174.175 25.4101C175.662 25.4932 180.122 25.4932 181.609 25.4101C183.053 25.3428 184.332 25.0182 185.385 23.9772C186.439 22.9402 186.768 21.6815 186.841 20.2605C186.925 18.796 186.925 14.4103 186.841 12.9458ZM184.919 21.8319C184.605 22.6077 183.998 23.2054 183.206 23.5181C182.02 23.9812 179.205 23.8743 177.894 23.8743C176.583 23.8743 173.765 23.9772 172.582 23.5181C171.794 23.2093 171.187 22.6116 170.869 21.8319C170.399 20.6642 170.508 17.8935 170.508 16.6031C170.508 15.3128 170.403 12.5381 170.869 11.3744C171.183 10.5986 171.79 10.0009 172.582 9.68823C173.769 9.22512 176.583 9.332 177.894 9.332C179.205 9.332 182.024 9.22908 183.206 9.68823C183.994 9.99697 184.601 10.5946 184.919 11.3744C185.389 12.5421 185.281 15.3128 185.281 16.6031C185.281 17.8935 185.389 20.6682 184.919 21.8319Z" fill="black"/>
</g>
<defs>
<clipPath id="clip0_1_1698">
<rect width="10.8872" height="21.7743" fill="white" transform="translate(12.4557 7.77881)"/>
</clipPath>
<clipPath id="clip1_1_1698">
<rect width="20.2658" height="15.7623" fill="white" transform="translate(62.8986 8.72778)"/>
</clipPath>
<clipPath id="clip2_1_1698">
<rect width="18.0141" height="16.8882" fill="white" transform="translate(116.448 6.08142)"/>
</clipPath>
<clipPath id="clip3_1_1698">
<rect width="18.0141" height="20.2658" fill="white" transform="translate(168.872 6.47607)"/>
</clipPath>
</defs>
</svg>
